<svg width="25" height="26" viewBox="0 0 25 26" xmlns="http://www.w3.org/2000/svg">
<g clip-path="url(#clip0_6_83)">
<path d="M8.36189 20.1269C8.36189 20.2277 8.24597 20.3083 8.0998 20.3083C7.93347 20.3235 7.81754 20.2428 7.81754 20.1269C7.81754 20.0261 7.93347 19.9454 8.07964 19.9454C8.23085 19.9303 8.36189 20.011 8.36189 20.1269ZM6.79436 19.9001C6.75907 20.0009 6.85988 20.1168 7.01109 20.1471C7.14214 20.1975 7.29335 20.1471 7.32359 20.0462C7.35383 19.9454 7.25806 19.8295 7.10685 19.7842C6.97581 19.7489 6.82964 19.7993 6.79436 19.9001ZM9.02218 19.8144C8.87601 19.8497 8.7752 19.9454 8.79032 20.0614C8.80544 20.1622 8.93649 20.2277 9.0877 20.1924C9.23387 20.1571 9.33468 20.0614 9.31956 19.9606C9.30444 19.8648 9.16835 19.7993 9.02218 19.8144ZM12.3387 0.499878C5.34778 0.499878 0 5.80734 0 12.7983C0 18.388 3.51815 23.1712 8.54335 24.8547C9.18851 24.9706 9.41532 24.5725 9.41532 24.2448C9.41532 23.9323 9.4002 22.2085 9.4002 21.1501C9.4002 21.1501 5.87198 21.9061 5.13105 19.6481C5.13105 19.6481 4.55645 18.1813 3.72984 17.8033C3.72984 17.8033 2.5756 17.012 3.81048 17.0271C3.81048 17.0271 5.06552 17.1279 5.75605 18.3275C6.85988 20.2731 8.70968 19.7136 9.43044 19.3809C9.54637 18.5745 9.87399 18.015 10.2369 17.6823C7.41936 17.3698 4.57661 16.9616 4.57661 12.1128C4.57661 10.7267 4.95968 10.0311 5.76613 9.14403C5.63508 8.81641 5.20665 7.4656 5.89718 5.72165C6.9506 5.39403 9.375 7.08254 9.375 7.08254C10.3831 6.80028 11.4667 6.65411 12.5403 6.65411C13.6139 6.65411 14.6976 6.80028 15.7056 7.08254C15.7056 7.08254 18.13 5.38899 19.1835 5.72165C19.874 7.47064 19.4456 8.81641 19.3145 9.14403C20.121 10.0362 20.6149 10.7317 20.6149 12.1128C20.6149 16.9767 17.6462 17.3648 14.8286 17.6823C15.2923 18.0805 15.6855 18.8366 15.6855 20.021C15.6855 21.7196 15.6704 23.8215 15.6704 24.2348C15.6704 24.5624 15.9022 24.9606 16.5423 24.8446C21.5827 23.1712 25 18.388 25 12.7983C25 5.80734 19.3296 0.499878 12.3387 0.499878ZM4.89919 17.884C4.83367 17.9344 4.84879 18.0503 4.93448 18.146C5.01512 18.2267 5.13105 18.262 5.19657 18.1965C5.2621 18.146 5.24698 18.0301 5.16129 17.9344C5.08065 17.8537 4.96472 17.8184 4.89919 17.884ZM4.35484 17.4757C4.31956 17.5412 4.36996 17.6219 4.47077 17.6723C4.55141 17.7227 4.65222 17.7075 4.6875 17.637C4.72278 17.5715 4.67238 17.4908 4.57157 17.4404C4.47077 17.4102 4.39012 17.4253 4.35484 17.4757ZM5.9879 19.27C5.90726 19.3356 5.9375 19.4868 6.05343 19.5825C6.16935 19.6985 6.31552 19.7136 6.38105 19.6329C6.44657 19.5674 6.41633 19.4162 6.31552 19.3204C6.20464 19.2045 6.05343 19.1894 5.9879 19.27ZM5.41331 18.5291C5.33266 18.5795 5.33266 18.7106 5.41331 18.8265C5.49395 18.9424 5.63004 18.9928 5.69556 18.9424C5.77621 18.8769 5.77621 18.7458 5.69556 18.6299C5.625 18.514 5.49395 18.4636 5.41331 18.5291Z" fill="#00A3FF"/>
</g>
<defs>
<clipPath id="clip0_6_83">
<rect width="25" height="25.8065" fill="white" transform="translate(0 0.0966797)"/>
</clipPath>
</defs>
</svg>
