<svg width="25" height="30" viewBox="0 0 25 30" fill="none" xmlns="http://www.w3.org/2000/svg">
<g clip-path="url(#clip0_6_81)">
<path d="M5.59598 25.7143H0.412946V9.02344H5.59598V25.7143ZM3.00167 6.74665C1.34431 6.74665 0 5.37388 0 3.71652C1.18627e-08 2.92042 0.316247 2.15694 0.87917 1.59401C1.44209 1.03109 2.20558 0.714844 3.00167 0.714844C3.79777 0.714844 4.56125 1.03109 5.12418 1.59401C5.6871 2.15694 6.00335 2.92042 6.00335 3.71652C6.00335 5.37388 4.65848 6.74665 3.00167 6.74665ZM24.9944 25.7143H19.8225V17.5893C19.8225 15.6529 19.7835 13.1696 17.1278 13.1696C14.433 13.1696 14.0201 15.2734 14.0201 17.4498V25.7143H8.84263V9.02344H13.8136V11.3002H13.8862C14.5781 9.98884 16.2684 8.60491 18.7902 8.60491C24.0357 8.60491 25 12.0592 25 16.5458V25.7143H24.9944Z" fill="#00A3FF"/>
</g>
<defs>
<clipPath id="clip0_6_81">
<rect width="25" height="28.5714" fill="white" transform="translate(0 0.714233)"/>
</clipPath>
</defs>
</svg>
